<?xml version="1.0" encoding="UTF-8" standalone="no"?>
<!-- Created with Vectornator for iOS (http://vectornator.io/) -->

<svg
   height="60"
   style="clip-rule:evenodd;fill-rule:nonzero;stroke-linecap:round;stroke-linejoin:round"
   xml:space="preserve"
   width="60"
   version="1.1"
   viewBox="0 0 60 60"
   id="svg139"
   sodipodi:docname="blackcat.svg"
   inkscape:version="1.1 (c4e8f9ed74, 2021-05-24)"
   inkscape:export-filename="/mnt/syno/data/my/noir/64x64.png"
   inkscape:export-xdpi="102.4"
   inkscape:export-ydpi="102.4"
   xmlns:inkscape="http://www.inkscape.org/namespaces/inkscape"
   xmlns:sodipodi="http://sodipodi.sourceforge.net/DTD/sodipodi-0.dtd"
   xmlns="http://www.w3.org/2000/svg"
   xmlns:svg="http://www.w3.org/2000/svg"
   xmlns:vectornator="http://vectornator.io"><sodipodi:namedview
   id="namedview141"
   pagecolor="#000000"
   bordercolor="#666666"
   borderopacity="1.0"
   inkscape:pageshadow="2"
   inkscape:pageopacity="1"
   inkscape:pagecheckerboard="false"
   showgrid="false"
   width="100px"
   height="100px"
   inkscape:zoom="4"
   inkscape:cx="52.5"
   inkscape:cy="28.75"
   inkscape:window-width="1920"
   inkscape:window-height="1080"
   inkscape:window-x="0"
   inkscape:window-y="0"
   inkscape:window-maximized="1"
   inkscape:current-layer="layer1" />
<metadata
   id="metadata92">
<vectornator:setting
   key="DimensionsVisible"
   value="1" />
<vectornator:setting
   key="PencilOnly"
   value="0" />
<vectornator:setting
   key="SnapToPoints"
   value="0" />
<vectornator:setting
   key="OutlineMode"
   value="0" />
<vectornator:setting
   key="CMYKEnabledKey"
   value="0" />
<vectornator:setting
   key="RulersVisible"
   value="1" />
<vectornator:setting
   key="SnapToEdges"
   value="0" />
<vectornator:setting
   key="GuidesVisible"
   value="1" />
<vectornator:setting
   key="DisplayWhiteBackground"
   value="0" />
<vectornator:setting
   key="doHistoryDisabled"
   value="0" />
<vectornator:setting
   key="SnapToGuides"
   value="1" />
<vectornator:setting
   key="TimeLapseWatermarkDisabled"
   value="0" />
<vectornator:setting
   key="Units"
   value="Millimeters" />
<vectornator:setting
   key="DynamicGuides"
   value="0" />
<vectornator:setting
   key="IsolateActiveLayer"
   value="0" />
<vectornator:setting
   key="SnapToGrid"
   value="0" />
</metadata>
<defs
   id="defs94"><filter
     style="color-interpolation-filters:sRGB;"
     inkscape:label="Colorize"
     id="filter615"
     x="-0.009587608"
     y="-0.0087831764"
     width="1.019144"
     height="1.0175968"><feColorMatrix
       values="1 0 0 0 0 0 1 0 0 0 0 0 1 0 0 -0.21 -0.72 -0.07 2 0 "
       result="fbSourceGraphic"
       id="feColorMatrix613" /><feColorMatrix
       result="fbSourceGraphicAlpha"
       in="fbSourceGraphic"
       values="0 0 0 -1 0 0 0 0 -1 0 0 0 0 -1 0 0 0 0 1 0"
       id="feColorMatrix635" /><feColorMatrix
       id="feColorMatrix637"
       values="0 0 1 0 0 0 1 0 0 0 1 0 0 0 0 -0.21 -0.72 -0.07 2 0 "
       result="fbSourceGraphic"
       in="fbSourceGraphic" /><feColorMatrix
       result="fbSourceGraphicAlpha"
       in="fbSourceGraphic"
       values="0 0 0 -1 0 0 0 0 -1 0 0 0 0 -1 0 0 0 0 1 0"
       id="feColorMatrix9859" /><feComposite
       in2="fbSourceGraphic"
       id="feComposite9861"
       operator="arithmetic"
       k1="8.92541"
       k2="9.1425"
       result="composite1"
       in="fbSourceGraphic" /><feColorMatrix
       id="feColorMatrix9863"
       in="composite1"
       values="1"
       type="saturate"
       result="colormatrix1" /><feFlood
       id="feFlood9865"
       flood-opacity="1"
       flood-color="rgb(255,255,255)"
       result="flood1" /><feBlend
       in2="colormatrix1"
       id="feBlend9867"
       in="flood1"
       mode="multiply"
       result="blend1" /><feBlend
       in2="blend1"
       id="feBlend9869"
       mode="screen"
       result="blend2" /><feColorMatrix
       id="feColorMatrix9871"
       in="blend2"
       values="1"
       type="saturate"
       result="colormatrix2" /><feComposite
       in2="fbSourceGraphic"
       id="feComposite9873"
       in="colormatrix2"
       operator="in"
       k2="1"
       result="composite2" /></filter></defs>

<g
   inkscape:groupmode="layer"
   id="layer1"
   inkscape:label="Layer 1"><rect
     style="clip-rule:evenodd;fill:#000000;fill-opacity:0;fill-rule:nonzero;stroke:#000000;stroke-width:71.3844;stroke-linecap:round;stroke-linejoin:round"
     id="rect11174"
     width="62.195938"
     height="34.941196"
     x="2.9118893"
     y="8.9611225"
     transform="matrix(0.99898547,-0.04503362,0.05989022,0.99820497,0,0)" /></g><g
   inkscape:groupmode="layer"
   id="layer2"
   inkscape:label="Layer 2"><g
     id="レイヤー 1"
     vectornator:layerName="レイヤー 1"
     transform="translate(-120.21897,-85.635672)"
     style="clip-rule:evenodd;fill-rule:nonzero;stroke-linecap:round;stroke-linejoin:round;image-rendering:auto;filter:url(#filter615)"
     inkscape:export-filename="/mnt/syno/data/my/noir/36x36.png"
     inkscape:export-xdpi="59.660706"
     inkscape:export-ydpi="59.660706">
<path
   stroke="#413262"
   stroke-width="1"
   d="m 138.975,102.424 c 2.683,0.881 -2.777,2.632 -3.129,2.867 -3.502,2.62 -4.175,10.101 1.306,10.662 4.467,2.118 10.547,-2.397 8.453,-7.203 -1.98,-2.743 -9.803,-5.835 -9.968,-0.404 -0.068,4.682 7.526,2.912 3.742,-0.64 -4.262,-1.87 -4.495,7.015 -0.144,5.971 2.531,-0.5 3.676,-4.448 1.655,-6.104 -2.756,-1.145 -4.512,3.519 -2.419,5.242 2.245,2.307 5.402,-1.706 3.698,-3.886 -4.461,-0.705 -1.49,6.591 0.486,2.369 -2.092,-3.047 -6.282,2.056 -3.176,3.769 1.446,0.688 2.899,-0.537 3.167,-1.956 1.013,-2.949 -3.117,-4.316 -5.342,-3.745 0.18,2.645 -4.133,2.162 -1.971,0.266 2.291,-3.543 9.623,-0.902 8.59,3.428 -0.267,2.434 -3.095,4.379 -5.308,2.891 -5.168,-3.459 4.062,-10.612 5.158,-4.159 -4.143,6.993 -8.269,-6.166 -0.834,-3.74 2.366,2.526 -0.298,7.501 -3.774,6.555 -5.563,-1.347 -1.794,-11.408 2.934,-7.583 2.603,2.843 0.046,8.527 -3.981,7.889 -7.743,-1.488 -0.017,-14.071 3.451,-6.064 -0.075,8.77 -12.142,-0.488 -5.178,-4.304 9.66,-3.961 15.768,11.589 4.495,13.001 -11.064,2.574 -11.628,-13.789 -1.911,-15.122 z"
   fill="#413262"
   stroke-linecap="round"
   opacity="1"
   stroke-linejoin="round"
   id="path96" />
<path
   stroke="#413262"
   stroke-width="1"
   d="m 137.987,106.337 c -3.41,-2.263 8.349,-2.065 0,0 z"
   fill="#413262"
   stroke-linecap="round"
   opacity="1"
   stroke-linejoin="round"
   id="path98" />
<path
   stroke="#413262"
   stroke-width="1"
   d="m 138.467,105.673 c 8.5,-0.452 7.268,7.81 2.399,10.338 -4.091,2.124 -13.021,-9.627 -5.916,-7.738 6.689,1.779 0.547,4.099 4.525,-0.091 1.339,-1.41 3.474,5.909 4.161,4.09 0.9,-2.381 -4.403,-9.159 -3.064,-6.994 1.437,2.324 0.645,7.765 3.362,7.475 2.637,-0.281 -4.178,-5.58 -2.43,-7.574 1.662,-1.898 4.859,5.292 2.967,6.961 -1.802,1.59 -5.605,-7.354 -5.21,-4.983 0.813,4.882 -0.866,10.698 -4.208,7.263 -4.213,-4.329 -2.621,-4.572 0.517,0.174 1.418,2.145 6.364,0.646 7.538,-1.642 1.653,-3.225 0.772,-8.766 -4.641,-7.279 z"
   fill="#413262"
   stroke-linecap="round"
   opacity="1"
   stroke-linejoin="round"
   id="path100" />
<path
   stroke="#413262"
   stroke-width="1"
   d="m 145.5,113.327 c 0.001,0.02 0.001,0.02 0.003,0.039 -10e-4,0.02 -10e-4,0.02 -10e-4,0.04 -0.001,0.02 -0.001,0.02 -0.002,0.04 -0.003,0.02 -0.003,0.02 -0.006,0.04 -0.004,0.019 -0.004,0.019 -0.008,0.039 -0.005,0.019 -0.005,0.019 -0.01,0.038 -0.006,0.019 -0.006,0.019 -0.013,0.038 -0.007,0.018 -0.007,0.018 -0.015,0.037 -0.009,0.018 -0.009,0.018 -0.017,0.036 -0.01,0.017 -0.01,0.017 -0.02,0.034 -0.011,0.017 -0.011,0.017 -0.022,0.034 -0.012,0.015 -0.012,0.015 -0.024,0.031 -0.013,0.015 -0.013,0.015 -0.026,0.031 -0.014,0.014 -0.014,0.014 -0.028,0.028 -0.015,0.013 -0.015,0.013 -0.03,0.027 -0.015,0.012 -0.015,0.012 -0.031,0.024 -0.016,0.012 -0.016,0.012 -0.033,0.023 -0.017,0.01 -0.017,0.01 -0.034,0.02 -0.018,0.01 -0.018,0.01 -0.035,0.019 -0.019,0.008 -0.019,0.008 -0.037,0.016 -0.019,0.006 -0.019,0.006 -0.037,0.013 -0.02,0.006 -0.02,0.006 -0.039,0.011 -0.019,0.005 -0.019,0.005 -0.039,0.009 -0.019,0.003 -0.019,0.003 -0.039,0.006 -0.02,0.002 -0.02,0.002 -0.04,0.004 -0.02,0 -0.02,0 -0.04,10e-4 -0.019,-10e-4 -0.019,-10e-4 -0.039,-0.002 -0.02,-0.002 -0.02,-0.002 -0.04,-0.004 -0.02,-0.003 -0.02,-0.003 -0.039,-0.006 -0.02,-0.005 -0.02,-0.005 -0.039,-0.009 -0.019,-0.006 -0.019,-0.006 -0.038,-0.012 -0.019,-0.007 -0.019,-0.007 -0.038,-0.014 -0.018,-0.008 -0.018,-0.008 -0.036,-0.016 -0.018,-0.01 -0.018,-0.01 -0.035,-0.019 -0.017,-0.01 -0.017,-0.01 -0.034,-0.021 -0.017,-0.011 -0.017,-0.011 -0.033,-0.023 -0.015,-0.012 -0.015,-0.012 -0.031,-0.025 -0.015,-0.013 -0.015,-0.013 -0.029,-0.027 -0.014,-0.014 -0.014,-0.014 -0.028,-0.028 -0.013,-0.016 -0.013,-0.016 -0.025,-0.031 -0.012,-0.016 -0.012,-0.016 -0.024,-0.032 -0.011,-0.017 -0.011,-0.017 -0.022,-0.034 -0.009,-0.017 -0.009,-0.017 -0.019,-0.034 -0.009,-0.018 -0.009,-0.018 -0.017,-0.036 -0.008,-0.019 -0.008,-0.019 -0.015,-0.037 -0.006,-0.019 -0.006,-0.019 -0.012,-0.038 -0.005,-0.02 -0.005,-0.02 -0.01,-0.039 -0.004,-0.02 -0.004,-0.02 -0.008,-0.039 -0.002,-0.02 -0.002,-0.02 -0.004,-0.04 0.173,-1.217 0.173,-1.217 0.346,-2.434 0.311,1.189 0.311,1.189 0.622,2.378 -10e-4,0.02 -10e-4,0.02 -10e-4,0.04 -0.002,0.02 -0.002,0.02 -0.004,0.039 -0.003,0.02 -0.003,0.02 -0.006,0.04 -0.005,0.019 -0.005,0.019 -0.009,0.039 -0.006,0.019 -0.006,0.019 -0.012,0.038 -0.006,0.019 -0.006,0.019 -0.013,0.037 -0.008,0.019 -0.008,0.019 -0.017,0.037 -0.009,0.017 -0.009,0.017 -0.018,0.035 -0.01,0.017 -0.01,0.017 -0.021,0.034 -0.011,0.017 -0.011,0.017 -0.022,0.033 -0.013,0.015 -0.013,0.015 -0.025,0.031 -0.014,0.015 -0.014,0.015 -0.027,0.03 -0.014,0.013 -0.014,0.013 -0.029,0.027 -0.015,0.013 -0.015,0.013 -0.03,0.026 -0.016,0.012 -0.016,0.012 -0.032,0.024 -0.017,0.011 -0.017,0.011 -0.033,0.022 -0.018,0.01 -0.018,0.01 -0.035,0.019 -0.018,0.009 -0.018,0.009 -0.036,0.018 -0.019,0.007 -0.019,0.007 -0.037,0.015 -0.019,0.006 -0.019,0.006 -0.038,0.012 -0.019,0.005 -0.019,0.005 -0.038,0.01 -0.02,0.004 -0.02,0.004 -0.04,0.008 -0.019,0.002 -0.019,0.002 -0.039,0.005 -0.02,0.001 -0.02,0.001 -0.04,0.003 -0.02,0 -0.02,0 -0.04,0 -0.02,-0.002 -0.02,-0.002 -0.04,-0.003 -0.019,-0.003 -0.019,-0.003 -0.039,-0.005 -0.02,-0.004 -0.02,-0.004 -0.039,-0.008 -0.019,-0.005 -0.019,-0.005 -0.039,-0.01 -0.019,-0.006 -0.019,-0.006 -0.038,-0.012 -0.018,-0.008 -0.018,-0.008 -0.037,-0.015 -0.018,-0.009 -0.018,-0.009 -0.035,-0.018 -0.018,-0.009 -0.018,-0.009 -0.035,-0.019 -0.017,-0.011 -0.017,-0.011 -0.034,-0.022 -0.016,-0.012 -0.016,-0.012 -0.032,-0.024 -0.015,-0.013 -0.015,-0.013 -0.03,-0.026 -0.014,-0.014 -0.014,-0.014 -0.029,-0.027 -0.013,-0.015 -0.013,-0.015 -0.026,-0.03 -0.013,-0.016 -0.013,-0.016 -0.025,-0.031 -0.012,-0.016 -0.012,-0.016 -0.023,-0.033 -0.01,-0.017 -0.01,-0.017 -0.021,-0.034 -0.009,-0.018 -0.009,-0.018 -0.018,-0.035 -0.008,-0.018 -0.008,-0.018 -0.016,-0.037 -0.007,-0.018 -0.007,-0.018 -0.014,-0.037 -0.006,-0.019 -0.006,-0.019 -0.011,-0.038 -0.005,-0.02 -0.005,-0.02 -0.009,-0.039 -0.003,-0.02 -0.003,-0.02 -0.007,-0.04 -0.002,-0.019 -0.002,-0.019 -0.003,-0.039 -0.001,-0.02 -0.001,-0.02 -0.002,-0.04 0.311,-1.811 0.311,-1.811 0.622,-3.622 0.446,1.783 0.446,1.783 0.892,3.566 z"
   fill="#413262"
   stroke-linecap="round"
   opacity="1"
   stroke-linejoin="round"
   id="path102" />
<path
   stroke="#413262"
   stroke-width="1"
   d="m 162.131,104.856 c 1.973,1.29 -2.313,1.846 -2.7,1.525 -3.306,2.985 -3.23,10.519 2.746,9.586 5.567,-0.55 6.529,-10.185 0.155,-10.297 -6.3,-0.98 -7.16,9.833 -0.667,10.174 6.921,0.958 7.241,-10.865 0.252,-10.394 -4.882,0.224 -5.369,11.049 0.477,9.29 1.394,-0.753 4.258,-3.049 2.346,-4.606 -2.015,-1.463 -4.333,1.16 -3.582,3.182 2.073,2.089 2.943,-3.874 0.78,-4.136 -4.653,3.862 4.36,3.866 0.283,-0.229 -4.227,3.351 2.955,5.303 2.169,0.046 -1.755,-3.743 -5.351,3.376 -1.782,2.691 1.68,-1.038 1.131,-5.294 -1.249,-4.289 -1.076,0.948 -0.739,3.186 0.516,3.875 2.004,-0.024 2.295,-4.147 -0.028,-3.789 -2.505,0.648 -2.498,7.329 -0.186,3.809 0.262,-0.919 -0.344,-1.879 -1.134,-2.297 -1.003,0.951 -1.372,4.368 0.846,3.584 1.549,-0.598 1.485,-3.025 0.402,-4.058 -6.657,4.018 3.42,10.042 2.521,0.788 -0.462,-0.196 -1.106,0.373 -1.242,0.845 -0.636,7.845 -5.078,-2.593 1.629,-1.872 1.771,2.464 0.014,7.481 -3.373,7.696 -4.389,-0.479 -3.639,-7.545 -0.045,-8.661 2.552,0.003 3.118,3.648 1.868,5.379 -3.352,4.123 -6.826,-3.2 -2.824,-4.747 4.316,-0.129 2.543,7.968 -1.202,5.011 -1.393,-2.291 0.393,-5.784 2.751,-6.67 3.502,-0.301 3.745,5.201 0.731,6.1 -3.049,0.527 -4.159,-4.496 -1.851,-5.997 4.155,-2.128 5.705,5.731 1.724,6.592 -3.612,0.333 -3.162,-5.493 -0.146,-6.124 4.771,-0.804 3.746,6.752 -0.107,6.986 -3.931,0.083 -2.855,-6.948 0.732,-5.853 4.03,1.762 -0.319,8.294 -3.166,4.767 -0.757,-1.68 -0.142,-4.517 1.968,-4.77 3.705,-0.007 3.379,7.12 -0.052,6.978 -3.664,-1.015 -1.382,-7.031 1.997,-6.44 5.252,0.606 2.085,7.205 -1.645,7.613 -7.518,0.992 -6.23,-12.588 0.498,-11.938 7.6,0.338 7.63,12.581 0.059,12.95 -7.709,0.606 -9.25,-11.684 -1.648,-12.75 9.369,-1.597 8.954,13.664 0.152,12.746 -7.911,0.407 -5.895,-13.741 1.027,-12.296 z"
   fill="#413262"
   stroke-linecap="round"
   opacity="1"
   stroke-linejoin="round"
   id="path104" />
<path
   stroke="#413262"
   stroke-width="1"
   d="m 141.36,103.106 c 1.352,0.544 -0.965,2.299 -0.643,0.318 2.731,0.418 -0.73,3.14 -1.051,0.111 0.238,-0.627 1.163,-0.273 1.694,-0.429 z"
   fill="#413262"
   stroke-linecap="round"
   opacity="1"
   stroke-linejoin="round"
   id="path106" />
<path
   stroke="#413262"
   stroke-width="1"
   d="m 139.909,104.223 c -2.742,0.042 1.669,-3.87 2.64,-0.846 5.961,5.867 0.509,11.506 -0.137,1.608 -0.592,-0.716 -1.663,-1.793 -2.503,-0.762 z"
   fill="#413262"
   stroke-linecap="round"
   opacity="1"
   stroke-linejoin="round"
   id="path108" />
<path
   stroke="#413262"
   stroke-width="1"
   d="m 160.595,102.061 c 2.652,1.926 -5.432,2.079 -4.335,5.086 -0.484,1.326 -0.555,2.782 -0.61,4.181 3.02,2.475 -1.09,5.111 -1.162,0.669 -0.569,-4.055 1.621,-9.425 6.107,-9.936 z"
   fill="#413262"
   stroke-linecap="round"
   opacity="1"
   stroke-linejoin="round"
   id="path110" />
<path
   stroke="#413262"
   stroke-width="1"
   d="m 158.611,104.253 c -3.49,-1.179 5.404,-3.867 6.066,-1.182 3.967,3.672 5.853,12.964 -1.163,14.437 -2.738,0.543 -5.779,-0.188 -7.829,-2.115 -4.027,-4.496 2.75,-7.314 0.314,-1.539 2.409,3.149 8.111,3.671 10.531,0.27 1.812,-4.548 -1.982,-13.723 -7.919,-9.871 z"
   fill="#413262"
   stroke-linecap="round"
   opacity="1"
   stroke-linejoin="round"
   id="path112" />
<path
   stroke="#413262"
   stroke-width="1"
   d="m 157.79,109.009 c -2.224,2.813 -1.658,-6.118 1.425,-5.058 7.377,-1.69 7.124,15.232 3.815,3.394 -0.751,-1.038 -1.896,-1.841 -3.142,-2.151 -1.871,-0.228 -2.404,2.395 -2.098,3.815 z"
   fill="#413262"
   stroke-linecap="round"
   opacity="1"
   stroke-linejoin="round"
   id="path114" />
<path
   stroke="#413262"
   stroke-width="1"
   d="m 163.829,104.597 c -2.817,-1.571 4.4,-2.344 3.766,0.981 0.795,1.743 1.503,3.707 1.074,5.646 -6.913,9.292 3.091,-7.839 -4.84,-6.627 z"
   fill="#413262"
   stroke-linecap="round"
   opacity="1"
   stroke-linejoin="round"
   id="path116" />
<path
   stroke="#413262"
   stroke-width="1"
   d="m 150.478,121.745 c 3.196,0.382 -3.767,3.216 -0.473,3.824 0.794,0.216 2.064,-0.568 1.876,-1.38 -0.562,-0.314 -1.665,-0.921 -2.036,-0.056 1.763,0.789 0.599,0.313 1.338,-0.912 -0.558,3.121 -4.205,-1.303 0.419,-0.393 -0.55,3.958 -1.697,-2.307 0.665,1.077 0.014,2.588 -4.153,1.464 -2.315,-0.642 1.059,-1.362 3.099,0.236 2.26,1.643 -0.734,2.199 -3.985,0.627 -2.712,-1.27 0.777,-1.457 3.202,-0.328 2.616,1.206 -0.472,1.914 -3.497,1.256 -3.474,-0.575 0.043,-2.539 4.145,-2.159 4.501,-0.004 -0.026,1.782 -2.134,3.014 -3.758,2.421 -2.849,-0.846 -1.097,-4.457 1.093,-4.939 z"
   fill="#413262"
   stroke-linecap="round"
   opacity="1"
   stroke-linejoin="round"
   id="path118" />
<path
   stroke="#413262"
   stroke-width="1"
   d="m 137.065,121.234 c 2.169,0.92 -1.799,2.075 -2.338,2.14 -3.604,1.913 -4.581,7.606 -0.835,9.915 3.433,2.698 8.335,3.482 12.456,2.145 1.438,-0.495 2.626,-1.593 3.215,-2.997 1.182,-13.121 5.167,1.606 -2.036,3.837 -10.589,6.88 -25.895,-10.767 -10.462,-15.04 z"
   fill="#413262"
   stroke-linecap="round"
   opacity="1"
   stroke-linejoin="round"
   id="path120" />
<path
   stroke="#413262"
   stroke-width="1"
   d="m 150.888,126.868 c 2.323,-2.176 0.722,4.683 1.759,5.199 1.696,3.613 6.071,6.602 10.135,4.949 3.819,-1.962 6.687,-6.371 6.311,-10.738 -0.224,-1.066 -0.758,-2.074 -1.526,-2.848 -7.502,-6.042 6.424,-0.312 2.772,4.972 -0.458,13.947 -22.02,12.388 -19.451,-1.534 z"
   fill="#413262"
   stroke-linecap="round"
   opacity="1"
   stroke-linejoin="round"
   id="path122" />
<path
   stroke="#413262"
   stroke-width="1"
   d="m 140.686,94.9308 c 2.203,-0.729 14.765,-0.9779 17.494,0.1146 -5.801,-0.6504 -11.757,1.208 -17.494,-0.1146 z"
   fill="#413262"
   stroke-linecap="round"
   opacity="1"
   stroke-linejoin="round"
   id="path124" />
<path
   stroke="#413262"
   stroke-width="1"
   d="m 136.244,90.2386 c 3.027,-0.5959 8.34,11.7164 0,0 z"
   fill="#413262"
   stroke-linecap="round"
   opacity="1"
   stroke-linejoin="round"
   id="path126" />
<path
   stroke="#413262"
   stroke-width="1"
   d="m 133.578,87.277 c 4.282,0.4049 8.883,12.2893 0,0 z"
   fill="#413262"
   stroke-linecap="round"
   opacity="1"
   stroke-linejoin="round"
   id="path128" />
<path
   stroke="#413262"
   stroke-width="1"
   d="m 133.848,87.7631 c -4.109,13.6299 -14.356,34.4899 -5.25,49.5199 3.333,3.883 8.635,4.539 13.285,5.787 4.302,-0.229 11.548,-0.573 2.136,0.763 -5.527,-0.985 -11.788,-1.851 -15.794,-6.217 -1.116,-1.176 -1.967,-2.581 -2.446,-4.133 -3.432,-15.441 1.731,-31.668 8.069,-45.7199 z"
   fill="#413262"
   stroke-linecap="round"
   opacity="1"
   stroke-linejoin="round"
   id="path130" />
<path
   stroke="#413262"
   stroke-width="1"
   d="m 158.393,95.1252 c 2.002,-6.8328 12.306,-13.2137 0,0 z"
   fill="#413262"
   stroke-linecap="round"
   opacity="1"
   stroke-linejoin="round"
   id="path132" />
<path
   stroke="#413262"
   stroke-width="1"
   d="m 164.786,87.6756 c 8.25,8.9905 11.412,27.0874 11.96,40.1074 -0.425,2.613 -1.299,5.15 -2.178,7.638 -7.921,9.224 5.777,-8.896 1.663,-11.758 -1.708,-12.442 -3.983,-25.5847 -11.445,-35.9874 z"
   fill="#413262"
   stroke-linecap="round"
   opacity="1"
   stroke-linejoin="round"
   id="path134" />
<path
   stroke="#413262"
   stroke-width="1"
   d="m 145.014,143.579 c 3.04,-1.145 13.352,0.995 17.694,-1.986 4.158,1.782 16.691,-16.105 8.882,-4.165 -7.709,4.983 -17.48,8.193 -26.576,6.151 z"
   fill="#413262"
   stroke-linecap="round"
   opacity="1"
   stroke-linejoin="round"
   id="path136" />
</g></g></svg>
